<svg xmlns="http://www.w3.org/2000/svg" viewBox="0 0 112.2 110.9" style="enable-background:new 0 0 112.2 110.9" xml:space="preserve"><circle cx="47.2" cy="50.8" r="34.1" style="fill:#bdffb5"/><path d="M31.1 48.8c0 4.7 2.1 7.4 4.2 9.9.2 2.7-.1 5.4-.8 8 2.7-.7 5.3-1.9 7.6-3.5 2.1.6 4.3 1 6.5 1.2-.2 1.7-.2 3.4.1 5-2-.2-3.9-.5-5.8-.9-3.5 2.1-11.2 4.3-16.6 5.3 2-4 4.3-9.5 4.1-13.3-2.7-3.3-4.3-7.4-4.3-11.7 0-12.1 11.8-20.9 25-20.9s25 8.7 25 20.8c-1.6-.4-3.3-.7-5-.8-.6-8.3-9.3-15-20-15-11.1 0-20 7.1-20 15.9zm52.2 25.4c-.1 2.5 1.4 6.1 2.7 8.7-3.6-.7-8.6-2.1-10.9-3.5-1.8.4-3.7.7-5.5.7-9.7 0-16.3-6.6-16.3-13.6 0-7.9 7.8-13.7 16.4-13.7s16.4 5.8 16.4 13.7c0 2.9-1 5.6-2.8 7.7zm-18.9-7.5c0-1.1-.9-2-2-2s-2 .9-2 2 .9 2 2 2 1.9-.9 2-2zm7.5 0c0-1.1-.9-2-2-2s-2 .9-2 2 .9 2 2 2 1.9-.9 2-2zm7.5 0c0-1.1-.9-2-2-2s-2 .9-2 2 .9 2 2 2 1.9-.9 2-2z" style="fill:#824a17"/></svg>