<svg version="1.1" id="Layer_1" xmlns="http://www.w3.org/2000/svg" x="0" y="0" viewBox="0 0 112.2 110.9" style="enable-background:new 0 0 112.2 110.9" xml:space="preserve"><style>.st1{fill:#cfe8e5}.st3{fill:#ffdc48}.st5{fill:#ffb899}.st6{fill:#e1f4f1}.st10{fill:#82ce32}.st11{fill:#6fb62a}.st13{fill:#fff2e9}.st14{fill:#ffd6bb}.st18{fill:#ffbe8d}</style><circle cx="50.6" cy="54.6" r="34.1" style="fill:#bdffb5"/><path class="st1" d="M78.4 52.3S69 54 67.9 56.2c-.7 1.4-1.2 2.9-1.3 4.4 0 0 3.7-.5 5.4-1.8s6.5-6.1 6.5-6.1v-.4z"/><path d="M79.8 48.6c-.1.1-.3.1-.6-.1-.4-.3-.7-.6-1-.9-.2-.2-.2-.5-.1-.6.1-.1.3-.1.6.1.2.1.4.2.6.4.2.2.3.3.4.5.1.3.2.5.1.6z" style="fill:#e04117"/><path class="st3" d="M78 47.9zM78 47.9zM78 47.9z"/><path d="m86.7 40.5-.5.7c-1.3 2-2.9 3.9-4.6 5.5l-1.8 1.8c.1-.1 0-.3-.1-.6-.1-.2-.3-.4-.4-.5-.2-.2-.4-.3-.6-.4-.4 0-.6-.1-.7 0l1.6-2.1c1.2-1.8 2.7-3.5 4.3-5l1-1c.1-.1.3-.1.5 0s.5.3.6.4l.4.4c.3.5.4.7.3.8z" style="fill:#ff4a1a"/><path class="st5" d="m79.9 46.7-.1-.1-.2-.2.7-1c1.2-1.8 2.6-3.4 4.2-4.8l.7-.6.1.1c.1 0 .1.1.1.1l-.2.3c-1.3 1.9-2.8 3.7-4.5 5.3l-.8.9z"/><path class="st6" d="M78.4 52.3s-4.8 4.9-6.5 6.1c-1.7 1.2-5.4 2.2-5.4 2.2.7-.6 4.1-7 4.6-7.6l2.5-3.5 2.1 1.2h.1l.5.3.6.4 1.5.9z"/><path class="st5" d="M78.2 47.8z"/><path d="m78.2 47.8.1-.1c.1-.1.3 0 .4.1s.3.3.2.4l-.2.2-.5-.6z" style="fill:#ffc82e"/><path class="st3" d="M78.9 48.3z"/><path class="st6" d="M78.9 48.3c-.3.4-.6.7-.8 1.1-.3.5-1 1.7-1 1.7V51.7l-.9-.5-.6-.2-.2-.1.3-.1h.1l.6-.2c.4-.7.8-1.5 1.2-2.2.3-.4.5-.5.5-.6h.1c.1 0 .2.1.3.1.2.1.3.2.4.4z"/><path class="st1" d="M74.9 52.7c-.4.5-7.6 7.2-8.3 7.8.2-1.7.6-3.3 1.3-4.9 1.1-2.2 5.8-6.3 5.8-6.3s.5 2.7 1.2 3.4z"/><path d="M78.4 52.3s-4.8 4.9-6.5 6.1c-1.7 1.2-5.4 2.2-5.4 2.2.7-.6 7.8-7.3 8.3-7.8 1 .3 2.6-.1 3.6-.5z" style="fill:#add8d5"/><path class="st1" d="M78.4 47.9c-.2.2-.5.4-.7.7-.4.7-.7 1.4-1.1 2.1-.1.2-.2.3-.4.4l-.2.2c-.5.6-1.2 1.4-1.2 1.4.1-.4.2-.7.3-1.1.1-.2.2-.4.4-.6l.1-.1v-.2h.1l.6-.2c.4-.7.8-1.5 1.2-2.2.3-.4.5-.5.5-.6h.1c.2.1.3.2.3.2zM74.9 52.7c.6-.2 1.1-.5 1.6-.7.2-.2.4-.4.5-.6l1.4.9c-.7.2-1.3.4-2 .5-.5.1-1 0-1.5-.1z"/><path d="M84.3 65v19.3H30.9V65h21.3v7.1c0 3.6 1.3 6.5 5.6 6.5h.2c4.3 0 5.1-2.9 5.1-6.5V65h21.2z" style="fill:#824a17"/><path class="st10" d="M55.8 41.9c-1 .6-2.2.9-3.3 1.1-1.4.1-3-.6-3.9-.7-.9 0-3.2.2-3.2.2s3.1-4.7 7.1-4.1 3.4 3.4 3.4 3.4l-.1.1z"/><path class="st11" d="M57.5 45v5.6l-.5-.1.1-5.3c0-1.4-.6-2.7-1.8-3.5-.7-.5-1.5-.8-2.3-1.1-1.5-.3-3.1-.3-4.6-.1 0 0 3.1-.7 4.8-.2.9.3 1.8.7 2.5 1.2 1.1.9 1.8 2.2 1.8 3.5z"/><path class="st10" d="M59.4 41.9c1 .4 2 .7 3.1.8 1.4.1 3-.6 3.9-.7.9 0 3.2.2 3.2.2s-3-4.8-7.2-4.1c-4.1.6-3.3 3.6-3.3 3.6l.3.2z"/><path d="M57.5 45v5.6l.5-.2v-5.3c0-1.4.6-2.7 1.8-3.5.7-.5 1.5-.8 2.3-1.1 1.5-.3 3.1-.3 4.6-.1 0 0-3.1-.7-4.8-.2-.9.3-1.8.7-2.6 1.2-1.1 1-1.8 2.2-1.8 3.6z" style="fill:#67aa21"/><path class="st13" d="M62.1 63.5c-2.5-2-2.4-5.6-4.9-7.6l.3-.2c2.4 2.1 2.1 5.8 4.6 7.8z"/><path class="st14" d="M62.1 63.5c-2.3-2.1-2-5.8-4.3-7.9l-.3.2c2.4 2 2.1 5.7 4.6 7.7z"/><path class="st13" d="M52.8 63.5c2.5-2 2.4-5.6 4.9-7.6l-.3-.2c-2.4 2.1-2.1 5.8-4.6 7.8z"/><path class="st14" d="M52.8 63.5c2.3-2.1 2-5.8 4.3-7.9l.3.2c-2.4 2-2.1 5.7-4.6 7.7z"/><path class="st10" d="M57.4 50.8v1.9l-.4-.5c0-.5-.2-1-.5-1.4-.5-.7-1.5.9-3.4.5-1-.2-1.8-1-1.6-1.6.2-.5.8-.9 2.2-1 2.5-.2 3.3 1.1 3.5 1.8.2.1.2.2.2.3z"/><path class="st11" d="M57.4 52.6v-1.9s.3-2.4 3.6-2.1 2.5 2.2.6 2.6c-1.8.4-2.8-1.2-3.4-.5-.3.4-.5.9-.5 1.4l-.3.5z"/><path class="st13" d="M57.4 64.6c-1.2-3 .7-6-.4-9h.4c1.1 3-1 6 0 9z"/><path class="st14" d="M57.4 64.6c-.9-3 1.3-6 .4-9h-.4c1.1 3-1 6 0 9z"/><path class="st11" d="M56.2 49.5c-.4-.4-1.6-.2-3.1.2-.5.2-1 .1-1.5-.1.2-.5.8-.9 2.2-1 2.5-.1 2.8 1.3 2.4.9z"/><path d="M57.6 50.4c.4-.3.7-.6 1.1-1 .4-.4 1.6-.2 3.1.2.5.2 1 .2 1.5-.1-.2-.5-.8-.9-2.2-1-2.5-.1-3.3 1.2-3.5 1.9z" style="fill:#68aa22"/><path class="st10" d="M57.4 41.8c.3.5.5 1.1.5 1.7-.1.4-.3.9-.4 1.3-.3-.5-.4-1-.5-1.6.1-.5.2-.9.4-1.4zM57.4 54.4c.1-.5 0-.9.1-1.1v-1.6h-.4v2.8c.1.2.2.3.3-.1z"/><path class="st11" d="M57.5 51.7v1.6c.1-.1.2-.2.4-.1v-1.4h-.4z"/><path d="M57.4 54.4c-.1.4-.2.4-.3.1v1.1c0 .1 0 .2.1.3l.2.3v-2.8c-.1.1 0 .5 0 1z" style="fill:#c9d67f"/><path d="M57.5 53.3v2.8l.3-.3c.1-.1.1-.2.1-.3v-2.4c-.2 0-.4.1-.4.2z" style="fill:#b7c672"/><path class="st18" d="m38.1 54.1-2.8-5.6-2.2-2.2-2.2-1.6v1.6l1.4 1.4 4.3 6.9 3.6 3.9 3.4 2.5s.4 0 .3-.8l-2.8-2-3-4.1z"/><path class="st18" d="M48.8 46.6c-.1.4-.2.7-.4 1-.2.3-.5.5-.9.6-1.9.2-5.9-1.1-5.9-1.1l2.3 3.5 4.2 2.9s2.1.7 2.4 1.3c.2.3.2.7 0 1l-3.7-1.2-3.8-1.9 3.8 3.3s2.6 1.2 2.8 1.5c.2.4.2 1 0 1.4L46 57.2l-4-2.7 3 3.6c.7.5 1.4 1 2 1.6.4.5-.2 1.3-.2 1.3L44 59.2l-3.8-4.1 1.6 2.5s1.8 1.2 1.9 2.2v.2l-1.3-1-1.4-1-2.1-2.8-.7-1-2.8-5.6-2.2-2.2-2.2-1.6v-5.5l5.8 4.5 2.8-.3c1.1-.1 2.1.2 3 .8.9.7 1.8 1.3 2.8 1.8 1.1.1 2.2.4 3.4.5z"/><path d="M50.5 54.9c.2.3.2.7 0 1l-3.7-1.3-3.8-1.9 3.8 3.3s2.6 1.2 2.8 1.5c.2.4.2 1 0 1.4L46 57.2l-4-2.7 3 3.6c.7.5 1.4 1 2 1.6.4.5-.2 1.3-.2 1.3L44 59.2l-3.8-4.1 1.6 2.5s1.8 1.2 1.9 2.2v.2l-1.3-1c-.5-.4-1-.8-1.5-1.1-.5-.2-1.3-1.4-2.1-2.8-1.2-2-3.6-5.1-1.5-7.1 1-.9.1-1.6.9-2.5.8-.9 1.1-.5 2.1-.8 1-.3 3.9 2 4.9 2.6 1 .3 2 .4 3 .4-.2.3-.5.5-.9.6-1.9.2-5.9-1.1-5.9-1.1l2.3 3.5 4.3 2.8c.1 0 2.2.7 2.5 1.4z" style="fill:#f9af7d"/></svg>