<svg version="1.1" id="Layer_1" xmlns="http://www.w3.org/2000/svg" x="0" y="0" viewBox="0 0 112.2 110.9" style="enable-background:new 0 0 112.2 110.9" xml:space="preserve"><style>.st1{fill:#ffeea9}.st2{fill:#ffe783}</style><circle cx="51.4" cy="52.5" r="34.1" style="fill:#bdffb5"/><path class="st1" d="M58.8 45.9h-6.5v-.1c0-6.1 2.2-12 6.2-16.6l.3-.3v17z"/><path class="st2" d="M58.8 45.9h6.5v-.1c0-6.1-2.3-12-6.4-16.6l-.1-.2v16.9z"/><path class="st1" d="m49.4 49.7-4.7 4.6-.1-.1c-4.3-4.4-6.8-10.1-7.1-16.3v-.4l11.9 12.2z"/><path class="st2" d="m49.4 49.7 4.6-4.6V45c-4.3-4.4-10-7-16.1-7.5h-.4l11.9 12.2z"/><path class="st1" d="m45.3 59.1-.2 6.5H45c-6.1-.1-12-2.5-16.4-6.7l-.3-.3 17 .5z"/><path class="st2" d="m45.3 59.1.2-6.5h-.1c-6.1-.2-12.1 1.9-16.7 5.9l-.3.3 16.9.3z"/><path class="st1" d="m48.8 68.7 4.4 4.8-.1.1c-4.5 4.2-10.3 6.5-16.4 6.7h-.4l12.5-11.6z"/><path class="st2" d="m48.8 68.7-4.4-4.8-.1.1c-4.5 4.1-7.3 9.8-7.9 15.9v.4l12.4-11.6z"/><path class="st1" d="m58 73.1 6.5.3v.1c-.3 6.1-2.9 11.9-7.1 16.2l-.3.3.9-16.9z"/><path class="st2" d="m58 73.1-6.5-.3v.1a25.2 25.2 0 0 0 5.4 16.9l.2.3.9-17z"/><path class="st1" d="m67.7 69.8 4.9-4.3.1.1c4 4.6 6.2 10.5 6.2 16.6v.4L67.7 69.8z"/><path class="st2" d="m67.7 69.8-4.9 4.3.1.1c4 4.6 9.6 7.6 15.6 8.3l.4.1-11.2-12.8z"/><path class="st1" d="m72.3 60.7.5-6.5h.2c6.1.5 11.8 3.2 16 7.6l.3.3-17-1.4z"/><path class="st2" d="m72.3 60.7-.5 6.5h.1c6.1.5 12.1-1.3 17-4.9l.3-.2-16.9-1.4z"/><path class="st1" d="m69.3 50.9-4.2-5 .1-.1c4.7-3.9 10.7-5.9 16.8-5.8h.4L69.3 50.9z"/><path class="st2" d="m69.3 50.9 4.2 5 .1-.1c4.7-3.9 7.8-9.4 8.8-15.4V40L69.3 50.9z"/><path d="M75.6 59.4c0 9.3-7.5 16.8-16.7 16.9-9.3 0-16.8-7.5-16.9-16.7s7.5-16.8 16.7-16.9c4.1 0 8 1.4 11.1 4.1 3.6 3.1 5.8 7.7 5.8 12.6z" style="fill:#ffd522"/><path d="M73.9 57.8c.1 9.2-7.4 16.8-16.7 16.9-4.1 0-8-1.4-11.1-4.1-6.1-7-5.4-17.6 1.5-23.7 6.3-5.5 15.8-5.6 22.1-.1 2.7 3 4.2 6.9 4.2 11z" style="fill:#ffdc48"/><path class="st1" d="M44.5 59.5c-.1-.3-.2-.7-.3-1-.1-.4-.2-.8-.2-1.2-.1-.5-.1-1 0-1.5 0-.3.1-.6.1-.9s.1-.6.2-.9c.2-.7.4-1.4.7-2 .3-.7.7-1.3 1.1-1.9.4-.6.9-1.2 1.5-1.8.6-.5 1.1-1 1.8-1.5.6-.4 1.3-.8 1.9-1.1.6-.3 1.3-.5 2-.7l.9-.2.9-.1h1.5c.4 0 .8.1 1.2.2.6.1 1 .3 1 .3s-.3.2-.9.3c-.3.1-.7.2-1 .4-.4.2-.9.4-1.3.6l-.7.3-.7.4c-.5.2-1 .6-1.5.9s-1 .7-1.5 1.1-.9.8-1.4 1.3-.9.9-1.2 1.4-.7 1-1.1 1.5-.7 1-.9 1.5l-.4.7-.3.7c-.2.5-.4.9-.5 1.3-.1.3-.3.7-.4 1-.4.6-.5.9-.5.9z"/></svg>