<svg version="1.1" id="Layer_1" xmlns="http://www.w3.org/2000/svg" x="0" y="0" viewBox="0 0 112.2 110.9" style="enable-background:new 0 0 112.2 110.9" xml:space="preserve"><style>.st1{fill:#ffd522}</style><circle cx="50.1" cy="47.1" r="34.1" style="fill:#bdffb5"/><path class="st1" d="M54.8 59.6h-4.7v4.2h4.2c0-1.4.1-2.8.5-4.2zM50.1 40.8h14.6V45H50.1zM33.4 72.1H48v4.2H33.4zM54.4 65.9h-4.3V70h5.4c-.6-1.3-.9-2.7-1.1-4.1zM50.1 34.6h14.6v4.2H50.1zM57.9 53.3h-7.8v4.2h5.4c.6-1.5 1.4-2.9 2.4-4.2zM64.7 48.3v-1.2H50.1v4.2H60c1.3-1.3 2.9-2.3 4.7-3zM33.4 65.9H48v4.2H33.4zM56.5 72.1h-6.4v4.2H60c-1.4-1.2-2.6-2.6-3.5-4.2zM70.9 51.3c-6.9 0-12.5 5.6-12.5 12.5S64 76.3 70.9 76.3s12.5-5.6 12.5-12.5-5.6-12.5-12.5-12.5zm0 22.9c-5.8 0-10.4-4.7-10.4-10.4s4.7-10.4 10.4-10.4S81.4 58 81.4 63.8c0 5.7-4.7 10.4-10.5 10.4zM33.4 53.3H48v4.2H33.4zM33.4 47.1H48v4.2H33.4zM33.4 59.6H48v4.2H33.4z"/><path class="st1" d="M71 62.1c0-1.6-1.3-2.8-2.9-2.8H64.2v8.2H66v-2.7h1.3l1.9 2.7h2l-2-2.9c1.1-.3 1.8-1.4 1.8-2.5zm-3.3 1.2H66V61h1.8c.9 0 1.5.5 1.5 1.2s-.7 1.1-1.6 1.1zM76.1 61.2c-.8 0-1.6.4-2.1 1v-.9h-1.8v8.3H74v-2.9c.5.6 1.3 1 2.1 1 1.8-.2 3-1.9 2.8-3.7-.2-1.5-1.3-2.6-2.8-2.8zm-.5 5c-.9 0-1.5-.7-1.6-1.5v-.5c0-.8.7-1.5 1.6-1.5 1 0 1.8.8 1.8 1.8 0 .9-.8 1.7-1.8 1.7z"/></svg>