<svg id="Layer_1" data-name="Layer 1" xmlns="http://www.w3.org/2000/svg" viewBox="0 0 112.18 110.86"><defs><style>.cls-1{fill:#824a17}</style></defs><circle class="cls-1" cx="61.87" cy="36.52" r="7.45"/><circle class="cls-1" cx="52.36" cy="39.34" r="7.45"/><path class="cls-1" d="M72.93 40.12A4.89 4.89 0 1 1 68 35.23a4.89 4.89 0 0 1 4.93 4.89ZM48.76 39.86A4.89 4.89 0 1 1 43.88 35a4.87 4.87 0 0 1 4.88 4.86Z"/><path class="cls-1" d="M39.25 40.12h33.93v42.41H39.25z"/><path d="M59.51 54.07c.76 1.87-5.43.23-5.43.23s.08-.49.25-1.22a12.26 12.26 0 0 1 1.92-4.67c3.35-4 1-7.18.94-7.29a8 8 0 0 1 1.89 2A6.43 6.43 0 0 1 60.21 47c-.16 3.74-2.21 3.27-.7 7.07Z" style="fill:#6fb62a"/><path d="M56.87 53c.56 1.32-1.32 1.75-2.79 1.31a11.13 11.13 0 0 1 .72-3.11 10.06 10.06 0 0 1 1.45-2.78c3.34-4 1-7.15.94-7.29a7.79 7.79 0 0 1 1.89 2 5.92 5.92 0 0 1 .35 2.33c-.15 3.72-3.33 5.66-2.56 7.54Z" style="fill:#82ce32"/><path d="M58.58 46.39c-.6 2.18-2.39 2.79-3.78 4.8a10.06 10.06 0 0 1 1.45-2.78c3.34-4 1-7.15.94-7.29a5.64 5.64 0 0 1 1.39 5.27Z" style="fill:#9bea3f"/><path d="M63.16 65.17c0 3.85-2.51 7-6.36 7s-6.37-3.13-6.37-7c0-9.78 6.37-13.5 6.37-13.5s6.36 3.25 6.36 13.5Z" style="fill:#ffe7d7"/><path d="M56.33 53.37a13.14 13.14 0 0 0-3.57 4.81c-.93 2.64-2.17 7.76.16 10.25s3.88 2.48 6 .46 2.84-9.62-2.59-15.52Z" style="fill:#fff2e9"/><path d="M55.39 56.49a5 5 0 0 0-1.34 1.81c-.36 1-2 3.91-1.13 4.85s.93.62 1.86-1.55c.44-1.03-.16-2.8.61-5.11Z" style="fill:#fffefd"/></svg>