<svg version="1.1" id="Layer_1" xmlns="http://www.w3.org/2000/svg" x="0" y="0" viewBox="0 0 112.2 110.9" style="enable-background:new 0 0 112.2 110.9" xml:space="preserve"><style>.st2{fill:#ff4a1a}.st3{fill:#82ce32}.st5{fill:#ffcd50}</style><circle cx="49.6" cy="51" r="34.1" style="fill:#bdffb5"/><path style="fill:#ffda7d" d="m49.6 34-6-.2v-3.9l6-.3z"/><path class="st2" d="M44.4 47.6c-.6.1-.7-.4-.3-1 3.2-4.9 1.4-9.1 5.5-12.6 15.1-1.5 7.5 4.9 9.5 5.3-6.7-4.4-8.2 2.3-12.5 7-.6.5-1.3 1-2.2 1.3z"/><path class="st3" d="M71.6 63.2h-4.2c-5.7 0-10.3-3.9-10.3-8.8V41.5H67l4.6 21.7z"/><path class="st3" d="M66 92.6H50c-2.3.2-4.3-1.4-4.7-3.6l-2-17.4c0-7.2 14.1-16.4 14.1-16.4 4.3-2.3 9.4-2.4 11.8 1.5l.4.4c2 1.7 3.2 8 3.2 10.4l-2.2 21.3c.1 2-2 3.8-4.6 3.8z"/><path d="M50 89.1c-.3 0-.5-.2-.6-.4l-2-17.2c.2-3.6 7.2-10 12.2-13.3.8-.3 1.7-.5 2.5-.5 1.5 0 3.1.5 4.3 1.5l.4.3c.8 1 1.9 5.3 2 7.7l-2.2 21.2v.2c0 .3-.3.5-.6.5H50z" style="fill:#fff4d7"/><path class="st2" d="M66 90H50c-.8 0-1.5-.5-1.6-1.3l-2-17.2v-.1c.2-4.1 7.8-10.8 12.6-14l.2-.1c1-.4 2-.6 3-.5 1.8 0 3.6.6 5 1.7l.5.4c1 1.2 2.2 5.8 2.2 8.2l-2.2 21.3v.1c-.2.9-.9 1.5-1.7 1.5zm-15.6-1.8h15.2l2.2-21.1c-.1-2.4-.7-4.8-1.7-7.1l-.3-.2c-1.6-1.2-3.7-1.5-5.5-.9-5.5 3.7-11.5 9.5-11.7 12.5l1.8 16.8z"/><path class="st5" d="M72.5 31.3H49.6v-2.6h20.3z"/><path d="M66.3 39.7h-6.7c-3.7-1.5-7.3-3.4-10.6-5.7.2-.9.1-1.8.4-2.6h23c-3.2 1.5-5.5 4.7-6.1 8.3z" style="fill:#ffbe1d"/><path class="st5" d="M56 38.9h12.1v2.9H56z"/></svg>