<?xml version="1.0" encoding="utf-8"?>
<!-- Generator: Adobe Illustrator 23.0.5, SVG Export Plug-In . SVG Version: 6.00 Build 0)  -->
<svg version="1.1" id="Layer_1" xmlns="http://www.w3.org/2000/svg" xmlns:xlink="http://www.w3.org/1999/xlink" x="0px" y="0px"
	 viewBox="0 0 112.2 110.9" style="enable-background:new 0 0 112.2 110.9;" xml:space="preserve">
<style type="text/css">
	.st0{fill:#BDFFB5;}
	.st1{fill:#824A17;}
</style>
<circle class="st0" cx="52.1" cy="51.3" r="34.1"/>
<title>88 [Converted]</title>
<path class="st1" d="M73.5,75.6H41.2V74c0-3.4,0.3-5.3,4.3-6.3c4.5-1,9-2,6.9-6c-6.4-11.8-1.8-18.4,5-18.4s11.4,6.4,5,18.4
	c-2.1,4,2.2,4.9,6.9,6c4,0.9,4.3,2.9,4.3,6.3L73.5,75.6z M86.5,69.6c-3.5-0.8-6.7-1.5-5.2-4.5c4.8-9,1.3-13.8-3.8-13.8
	c-3.4,0-6.1,2.2-6.1,6.3c0,10.5,6.1,4.8,6,18h12.1v-1.2C89.7,71.8,89.5,70.4,86.5,69.6L86.5,69.6z M25,75.6h12.2
	c-0.1-13.2,6-7.5,6-18c0-4.1-2.7-6.3-6-6.3c-5,0-8.5,4.8-3.8,13.8c1.6,3-1.7,3.7-5.1,4.5c-3,0.7-3.2,2.2-3.2,4.7L25,75.6z"/>
</svg>
