<svg version="1.1" id="Layer_1" xmlns="http://www.w3.org/2000/svg" x="0" y="0" viewBox="0 0 112.2 110.9" style="enable-background:new 0 0 112.2 110.9" xml:space="preserve"><style>.st4{fill:#dcfcff}.st5{fill:#82ce32}</style><circle cx="47.4" cy="51.8" r="34.1" style="fill:#bdffb5"/><path style="fill:#c2fcff" d="M23.9 44.9h64.3V86H23.9z"/><path style="fill:#a6f7ff" d="M56.1 27.9 26.8 45.6V86h29.3V27.9z"/><path style="fill:#c0fcff" d="M56.1 86h29.3V45.6L56.1 27.9z"/><path class="st4" d="M85.4 41.2v4.4l5.9 3.6 2.3-3zM18.6 46.2l2.3 3 5.9-3.6v-4.4zM56.1 23.6v4.3l29.3 17.7v-4.4z"/><path class="st4" d="M56.1 27.9v-4.2l-.1-.1-29.2 17.6v4.4l29.3-17.7z"/><path class="st5" d="M52.8 55.1c-2 1.1-4.1 1.8-6.4 2.2-2.6.2-5.7-1.3-7.4-1.3s-6.2.4-6.2.4 5.8-9.1 13.7-7.9 6.4 6.4 6.4 6.4l-.1.2z"/><path d="M56.2 61v21.6l-1-.3.1-20.9c0-2.6-1.2-5.1-3.4-6.7-1.4-.9-2.9-1.6-4.5-2-2.9-.5-5.9-.6-8.8-.2 0 0 6-1.4 9.3-.4 1.7.5 3.3 1.2 4.9 2.2 2.1 1.5 3.4 4 3.4 6.7z" style="fill:#6fb62a"/><path class="st5" d="M59.9 54.9c1.9.8 3.8 1.3 5.8 1.6 2.7.2 5.8-1.2 7.5-1.3s6.2.4 6.2.4-5.8-9.1-13.7-7.9-6.4 7-6.4 7l.6.2z"/><path d="M56.2 61v21.6l1-.3-.1-20.9c0-2.6 1.2-5.1 3.4-6.7 1.4-.9 2.9-1.6 4.5-2 2.9-.5 5.9-.6 8.8-.2 0 0-6-1.4-9.3-.4-1.7.5-3.4 1.2-4.9 2.2-2.1 1.6-3.4 4-3.4 6.7z" style="fill:#67aa21"/><path class="st5" d="M56 54.8s1.2 2.2 1 3.2c-.2.8-.5 1.7-.8 2.5-.5-1-.8-2-1-3.1.2-.8.4-1.7.8-2.6z"/><path d="M26.8 86h58.5s-.8-5.9-5.7-6.4-6.8 1.4-6.8 1.4c-1.4-2.3-3.8-3.7-6.4-3.9-2.5-.2-5.1.7-6.9 2.5-1.2-2.6-4.1-4-6.9-3.4-4.9 1-4.9 4.4-4.9 4.4a8.57 8.57 0 0 0-8.6-2.3c-4.6 1-4.7 3.8-4.7 3.8-1.8-.4-3.7-.2-5.4.5-1.5.5-2.2 3.4-2.2 3.4z" style="fill:#824a17"/></svg>