<svg version="1.1" id="Layer_1" xmlns="http://www.w3.org/2000/svg" x="0" y="0" viewBox="0 0 112.2 110.9" style="enable-background:new 0 0 112.2 110.9" xml:space="preserve">
  <style>
    .st2{fill:#ffbe8d}
  </style>
  <circle cx="50.2" cy="51.8" r="34.1" style="fill:#bdffb5"/>
  <path d="M76.5 65.8v22H37.4v-22h13.1v8.1c0 4.1 1.5 7.5 6.4 7.5h.2c4.9 0 5.8-3.3 5.8-7.5v-8.1h13.6z" style="fill:#824a17"/>
  <path class="st2" d="m67.3 52.3-5 5.5c-.6-.7-1-1.5-1-2.4 0-.5.1-1.1.4-1.6.7-1.3 1.6-2.5 2.7-3.6l-.6-4.1-4-4h-4l-11-5.5-6.9-3.5V21.7l10.4 9 13.3 4.9s5.5 8.2 5.9 10.6c.1 2 .1 4.1-.2 6.1z"/>
  <path class="st2" d="m37.8 33.2 6.4 3.3 2.6 6.2 4.5 3.9 2.8 6.4c.5.9 1.5 1.4 2.5 1 1-.4 1.5-1.5 1.1-2.5l-2.1-5.8v-3.6l-18-12.4.2 3.5z"/>
  <path d="M57.6 56.2c0 .6-.5 1.1-1.1 1.1s-1.1-.5-1.1-1.1.5-1.1 1.1-1.1c.6 0 1.1.5 1.1 1.1zm-2.8 4.7c0 .6-.5 1.1-1.1 1.1-.6 0-1.1-.5-1.1-1.1 0-.6.5-1.1 1.1-1.1.6 0 1.1.5 1.1 1.1zm3.9 3.3c0 .7-.6 1.3-1.3 1.3s-1.3-.6-1.3-1.3c0-.7.6-1.3 1.3-1.3.7 0 1.3.6 1.3 1.3z" style="fill:#ffac33"/>
  <path d="M42.9 25.8c.8.9 1.4 2 1.9 3.1l-6.9-3.5v-3.1c1.8.9 3.5 2.1 5 3.5zM65 51.1c-1.4 1.3-2.6 2.8-3.7 4.4 0-.5.1-1.1.4-1.6.7-1.3 1.6-2.5 2.7-3.6l-.6-4.1-4-4h-4c-.3-.8.2-1.7 1-2 1.4-.5 6.9 1.7 7.8 4.7.5 2 .7 4.1.4 6.2z" style="fill:#ffa669"/>
</svg>
